<?xml version="1.0" standalone="no"?>
<!DOCTYPE svg PUBLIC "-//W3C//DTD SVG 20010904//EN"
        "http://www.w3.org/TR/2001/REC-SVG-20010904/DTD/svg10.dtd">
<svg version="1.0" xmlns="http://www.w3.org/2000/svg"
     width="1080.000000pt" height="1080.000000pt" viewBox="0 0 1080.000000 1080.000000"
     preserveAspectRatio="xMidYMid meet">
    <metadata>
        Created by potrace 1.14, written by Peter Selinger 2001-2017
    </metadata>
    <g transform="translate(0.000000,1080.000000) scale(0.100000,-0.100000)"
       fill="#000000" stroke="none">
        <path d="M6218 10755 c-1 -1 -52 -6 -113 -9 -109 -6 -147 -10 -235 -21 -25 -3
-65 -8 -90 -11 -38 -5 -115 -17 -255 -40 -16 -3 -68 -14 -115 -24 -47 -10 -96
-21 -110 -23 -23 -5 -66 -16 -239 -64 -136 -37 -411 -134 -546 -193 -252 -109
-535 -257 -735 -384 -59 -38 -184 -121 -195 -129 -5 -4 -59 -44 -120 -88 -266
-197 -581 -493 -785 -739 -19 -23 -43 -52 -54 -64 -10 -11 -39 -48 -64 -81
-25 -33 -49 -62 -52 -65 -18 -14 -260 -357 -260 -367 0 -3 -10 -20 -23 -37
-69 -93 -387 -656 -392 -696 -1 -3 -11 -24 -23 -47 -108 -206 -293 -687 -382
-993 -12 -41 -26 -86 -30 -100 -5 -14 -19 -63 -30 -110 -12 -47 -28 -105 -35
-130 -8 -25 -16 -58 -19 -75 -3 -16 -14 -68 -26 -115 -11 -47 -25 -107 -30
-135 -6 -27 -12 -61 -15 -75 -3 -14 -7 -36 -10 -50 -2 -14 -9 -50 -15 -80 -6
-30 -13 -66 -16 -80 -2 -14 -7 -41 -10 -60 -7 -36 -9 -47 -18 -115 -3 -22 -8
-49 -10 -61 -2 -12 -7 -45 -11 -75 -3 -30 -8 -61 -10 -69 -2 -8 -6 -37 -10
-65 -3 -27 -7 -63 -9 -80 -2 -16 -7 -59 -10 -95 -4 -36 -9 -76 -11 -90 -2 -14
-7 -61 -11 -105 -4 -44 -8 -93 -10 -110 -3 -38 -14 -184 -19 -255 -27 -407
-27 -1218 0 -1455 2 -16 6 -64 10 -105 4 -41 9 -84 11 -95 2 -11 6 -46 9 -77
3 -32 10 -83 16 -115 5 -32 12 -76 15 -98 10 -68 73 -355 100 -450 237 -845
667 -1476 1235 -1810 46 -26 238 -121 299 -147 69 -30 263 -91 323 -103 15 -3
39 -7 55 -10 15 -3 32 -7 39 -10 6 -2 38 -7 70 -11 32 -3 62 -8 66 -11 15 -9
391 -12 452 -3 144 20 160 22 166 26 3 2 19 5 36 8 148 27 377 140 510 253
203 172 308 322 457 656 18 39 94 267 102 302 2 11 13 58 25 105 11 47 22 96
24 110 2 14 17 97 34 185 17 88 33 180 36 204 3 23 7 46 9 50 2 3 7 28 10 55
4 27 9 52 11 56 2 3 6 24 9 45 2 22 23 141 46 265 23 124 43 236 45 250 4 27
4 28 40 230 25 134 33 182 41 230 3 14 7 36 9 50 3 14 8 37 10 53 3 15 7 39
10 55 3 15 12 68 20 117 9 50 20 110 25 135 5 25 11 59 14 75 3 26 14 88 30
170 2 11 25 142 51 290 26 149 50 273 54 276 3 4 50 10 104 13 93 6 137 11
217 22 19 3 58 7 85 10 28 2 64 6 80 9 17 3 48 7 70 10 142 21 400 73 575 116
560 139 1036 346 1478 640 111 74 294 208 312 228 3 3 25 22 50 42 82 67 183
163 304 290 399 418 702 991 821 1549 11 55 36 196 44 255 40 283 33 767 -14
995 -2 14 -12 60 -20 102 -115 560 -455 1118 -898 1470 -328 261 -755 473
-1157 573 -81 20 -249 56 -305 66 -72 12 -78 12 -155 23 -25 4 -56 8 -70 11
-14 2 -61 7 -105 11 -44 3 -93 8 -110 11 -36 5 -672 13 -677 8z m142 -1239
c84 -6 217 -21 275 -31 11 -1 36 -6 55 -9 72 -12 87 -16 165 -35 367 -91 649
-262 871 -529 77 -92 74 -88 126 -172 84 -135 144 -280 187 -455 19 -77 24
-108 38 -225 14 -112 6 -513 -11 -608 -2 -9 -7 -42 -11 -72 -8 -63 -7 -54 -34
-185 -12 -55 -35 -145 -53 -200 -17 -55 -32 -102 -32 -105 -3 -17 -59 -142
-109 -240 -51 -100 -148 -252 -204 -321 -300 -366 -742 -625 -1309 -767 -142
-36 -267 -62 -359 -75 -16 -3 -46 -7 -65 -11 -106 -18 -102 -19 -96 22 14 88
18 112 32 192 9 47 17 97 19 112 4 27 21 122 30 168 3 14 8 43 11 65 2 22 18
119 35 215 16 96 32 189 35 205 5 33 15 89 20 120 2 11 15 88 29 170 14 83 34
200 45 260 11 61 22 126 24 145 3 19 9 60 15 90 11 59 17 92 27 155 3 22 12
74 20 115 8 41 17 91 19 110 3 19 9 64 14 100 10 69 7 336 -3 383 -54 239
-237 378 -531 404 -232 20 -416 -5 -580 -81 -223 -103 -343 -243 -414 -482
-16 -54 -85 -415 -135 -699 -15 -88 -58 -325 -76 -425 -12 -63 -23 -126 -25
-140 -2 -14 -13 -77 -25 -140 -11 -63 -23 -130 -26 -149 -3 -18 -7 -43 -10
-55 -4 -19 -56 -320 -68 -391 -3 -16 -12 -70 -21 -120 -9 -49 -18 -101 -20
-115 -2 -14 -22 -135 -44 -270 -22 -135 -52 -315 -65 -400 -14 -85 -28 -166
-30 -180 -16 -87 -69 -389 -71 -407 -2 -12 -6 -34 -9 -50 -3 -15 -8 -44 -11
-63 -4 -19 -10 -54 -16 -78 -5 -23 -12 -59 -15 -80 -5 -32 -37 -223 -50 -292
-2 -14 -7 -40 -10 -59 -6 -38 -11 -64 -19 -101 -3 -14 -7 -41 -9 -60 -3 -19
-19 -114 -36 -210 -17 -96 -33 -188 -36 -205 -3 -16 -7 -37 -9 -45 -2 -8 -6
-33 -10 -55 -3 -22 -12 -76 -20 -120 -8 -44 -17 -97 -21 -119 -3 -21 -8 -48
-10 -60 -2 -11 -29 -163 -59 -336 -68 -390 -62 -356 -90 -475 -147 -622 -384
-760 -719 -420 -129 131 -256 357 -354 632 -42 117 -104 320 -117 380 -2 10
-8 38 -14 63 -5 25 -12 59 -15 75 -3 17 -8 40 -10 52 -5 24 -34 226 -41 283
-2 19 -6 53 -9 75 -5 40 -10 107 -22 280 -18 274 -2 931 32 1290 13 146 34
338 39 375 2 14 9 61 15 105 6 44 13 95 16 114 2 19 6 43 9 55 2 12 7 38 10
59 5 35 50 280 59 322 2 11 12 56 21 100 69 335 236 874 359 1160 116 268 243
523 340 684 31 51 56 95 56 97 0 8 169 256 228 334 207 274 434 510 672 700
221 176 482 331 735 435 154 64 412 142 560 170 147 27 261 41 405 51 46 3 85
6 87 7 4 5 335 -1 423 -7z"/>
    </g>
</svg>
