<svg fill="none" xmlns="http://www.w3.org/2000/svg" viewBox="0 0 383 348">
    <circle cx="182.5" cy="165.5" r="134.5" stroke="#F5F5F5" stroke-width="6" stroke-linecap="round"
            stroke-dasharray="39 39"/>
    <g filter="url(#Frame 1__a)">
        <rect x="147" y="130" width="72" height="72" rx="8" fill="#fff"/>
        <rect x="147.5" y="130.5" width="71" height="71" rx="7.5" stroke="#F5F5F5"/>
    </g>
    <rect x="161" y="144" width="43" height="43" rx="4" fill="#DBEAFE"/>
    <path d="M183 165.25a3.25 3.25 0 1 0 0-6.5 3.25 3.25 0 0 0 0 6.5Zm-5.152 8h10.305c1.141 0 2.021-.982 1.488-1.992-.785-1.485-2.573-3.258-6.641-3.258s-5.856 1.773-6.641 3.258c-.533 1.01.347 1.992 1.489 1.992Z"
          stroke="#171717" stroke-width="1.5" stroke-linecap="round" stroke-linejoin="round"/>
    <g filter="url(#Frame 1__b)">
        <rect x="110" y="1" width="146" height="83" rx="8" fill="#fff"/>
        <rect x="110.5" y="1.5" width="145" height="82" rx="7.5" stroke="#F5F5F5"/>
    </g>
    <rect x="161" y="14" width="43" height="43" rx="4" fill="#DBEAFE"/>
    <path d="M185.667 42.625h2.375c.641 0 1.171-.53 1.171-1.172l.016-.016a1.2 1.2 0 0 0-1.187-1.187h-2.375v2.375Zm0-4.75h1.979a1.17 1.17 0 0 1 1.187 1.188c0 .665-.522 1.187-1.187 1.187h-1.979v-2.375Zm-9.5-4.75v-3.167c0-.82.708-1.583 1.583-1.583s1.583.763 1.583 1.583v3.167m-3.966 2.359a7.126 7.126 0 0 0 7.125 7.125m7.125-7.125a7.126 7.126 0 0 0-7.125-7.125m-3.159 3.183h-3.166"
          stroke="#171717" stroke-width="1.5" stroke-linecap="round" stroke-linejoin="round"/>
    <path d="M148.321 73h-1.687l3.072-8.727h1.952L154.735 73h-1.688l-2.331-6.938h-.068L148.321 73Zm.056-3.422h4.602v1.27h-4.602v-1.27Zm11.611.67v-3.794h1.543V73h-1.496v-1.163h-.068a1.971 1.971 0 0 1-.729.899c-.335.233-.749.35-1.24.35a2.24 2.24 0 0 1-1.138-.286 1.985 1.985 0 0 1-.767-.84c-.185-.37-.277-.815-.277-1.338v-4.168h1.543v3.93c0 .414.113.744.341.988.227.245.525.367.894.367.228 0 .448-.056.661-.167a1.34 1.34 0 0 0 .524-.494c.139-.222.209-.499.209-.83Zm6.397-3.794v1.194h-3.762v-1.194h3.762Zm-2.834-1.568h1.543v6.145c0 .208.031.367.094.477.065.109.15.182.256.222.105.04.221.06.349.06a2.008 2.008 0 0 0 .452-.06l.26 1.206c-.083.028-.201.06-.354.094a2.898 2.898 0 0 1-.554.06 2.517 2.517 0 0 1-1.044-.175 1.623 1.623 0 0 1-.737-.605c-.179-.273-.267-.614-.265-1.023v-6.4Zm6.909 8.242c-.639 0-1.193-.14-1.662-.422a2.874 2.874 0 0 1-1.091-1.18c-.255-.506-.383-1.097-.383-1.773 0-.676.128-1.269.383-1.777a2.866 2.866 0 0 1 1.091-1.185c.469-.281 1.023-.422 1.662-.422s1.193.14 1.662.422c.469.281.831.676 1.087 1.185.258.508.388 1.1.388 1.777 0 .676-.13 1.267-.388 1.773a2.84 2.84 0 0 1-1.087 1.18c-.469.281-1.023.422-1.662.422Zm.009-1.236c.346 0 .636-.095.869-.285.233-.194.406-.452.52-.776.116-.324.175-.685.175-1.082 0-.401-.059-.763-.175-1.087a1.722 1.722 0 0 0-.52-.78c-.233-.193-.523-.29-.869-.29-.355 0-.651.097-.887.29a1.753 1.753 0 0 0-.524.78c-.113.324-.17.686-.17 1.087 0 .397.057.758.17 1.082.117.324.291.582.524.775.236.19.532.286.887.286ZM174.906 73v-6.546h1.474v1.113h.077c.136-.375.362-.668.678-.878.315-.213.691-.32 1.129-.32.443 0 .817.108 1.121.324.306.213.522.504.647.874h.068c.145-.364.39-.654.733-.87.347-.218.758-.328 1.232-.328.602 0 1.094.19 1.474.571.381.381.571.936.571 1.666V73h-1.546v-4.155c0-.406-.108-.703-.324-.89a1.157 1.157 0 0 0-.793-.286c-.372 0-.663.117-.873.35-.208.23-.312.53-.312.899V73h-1.512v-4.219c0-.338-.103-.608-.307-.81-.202-.201-.466-.302-.793-.302a1.12 1.12 0 0 0-.605.17 1.19 1.19 0 0 0-.435.474 1.477 1.477 0 0 0-.161.707V73h-1.543Zm12.653.132a2.73 2.73 0 0 1-1.121-.222 1.83 1.83 0 0 1-.784-.664c-.19-.293-.285-.654-.285-1.083 0-.369.068-.674.204-.916.137-.241.323-.434.558-.58.236-.144.502-.254.797-.328.299-.076.607-.132.925-.166.384-.04.695-.075.933-.106.239-.034.412-.085.52-.154.111-.07.166-.18.166-.328v-.025c0-.321-.095-.57-.285-.746-.191-.176-.465-.264-.823-.264-.377 0-.677.082-.899.247a1.23 1.23 0 0 0-.443.584l-1.44-.205c.113-.398.301-.73.562-.997a2.45 2.45 0 0 1 .959-.605 3.666 3.666 0 0 1 1.253-.205c.315 0 .629.037.942.111.312.074.598.196.856.367.259.167.466.396.622.686.159.29.239.652.239 1.086V73h-1.483v-.9h-.051a1.896 1.896 0 0 1-.396.512c-.168.157-.38.283-.635.38a2.58 2.58 0 0 1-.891.14ZM187.96 72c.309 0 .578-.061.805-.184.227-.125.402-.29.524-.494a1.26 1.26 0 0 0 .188-.669v-.771a.733.733 0 0 1-.248.11 3.46 3.46 0 0 1-.383.09c-.142.025-.283.048-.422.068l-.362.051c-.23.031-.436.083-.618.154-.182.07-.325.17-.431.298a.73.73 0 0 0-.157.486c0 .284.104.498.311.643.207.145.471.218.793.218Zm7.875-5.544v1.193h-3.763v-1.194h3.763Zm-2.834-1.569h1.542v6.145c0 .208.032.367.094.477a.506.506 0 0 0 .256.222c.105.04.221.06.349.06a2.008 2.008 0 0 0 .452-.06l.26 1.206a2.919 2.919 0 0 1-.908.154 2.517 2.517 0 0 1-1.044-.175 1.623 1.623 0 0 1-.737-.605c-.179-.273-.267-.614-.264-1.023v-6.4ZM197.125 73v-6.546h1.542V73h-1.542Zm.775-7.474a.899.899 0 0 1-.63-.243.78.78 0 0 1-.265-.593c0-.233.088-.43.265-.592a.89.89 0 0 1 .63-.247c.247 0 .458.082.631.247.176.162.264.36.264.592 0 .23-.088.428-.264.593a.89.89 0 0 1-.631.243Zm5.209 7.602c-.64 0-1.194-.14-1.662-.422a2.86 2.86 0 0 1-1.091-1.18c-.256-.506-.384-1.097-.384-1.773 0-.676.128-1.269.384-1.777a2.853 2.853 0 0 1 1.091-1.185c.468-.281 1.022-.422 1.662-.422.639 0 1.193.14 1.662.422a2.83 2.83 0 0 1 1.086 1.185c.259.508.388 1.1.388 1.777 0 .676-.129 1.267-.388 1.773a2.837 2.837 0 0 1-1.086 1.18c-.469.281-1.023.422-1.662.422Zm.008-1.236c.347 0 .637-.095.87-.285.232-.194.406-.452.519-.776.117-.324.175-.685.175-1.082 0-.401-.058-.763-.175-1.087a1.72 1.72 0 0 0-.519-.78c-.233-.193-.523-.29-.87-.29-.355 0-.65.097-.886.29a1.745 1.745 0 0 0-.524.78 3.257 3.257 0 0 0-.171 1.087c0 .397.057.758.171 1.082.116.324.291.582.524.775.236.19.531.286.886.286Zm5.98-2.727V73h-1.543v-6.546h1.475v1.113h.076c.151-.367.391-.658.721-.874.332-.216.743-.324 1.231-.324.452 0 .845.097 1.181.29.338.193.599.473.784.84.187.366.279.81.277 1.333V73h-1.543v-3.929c0-.438-.114-.78-.341-1.027-.224-.247-.535-.37-.933-.37-.27 0-.51.059-.72.178a1.234 1.234 0 0 0-.49.507c-.117.222-.175.49-.175.806Zm10.943-.98-1.406.153a1.125 1.125 0 0 0-.209-.4 1.038 1.038 0 0 0-.392-.303 1.427 1.427 0 0 0-.605-.115c-.321 0-.591.07-.81.209-.216.139-.322.32-.319.54a.565.565 0 0 0 .208.465c.145.12.384.218.716.294l1.117.239c.619.134 1.079.345 1.381.635.304.29.457.669.46 1.138a1.785 1.785 0 0 1-.362 1.09c-.236.313-.564.558-.985.734-.42.176-.903.264-1.449.264-.801 0-1.446-.168-1.934-.503a2.021 2.021 0 0 1-.874-1.41l1.504-.145c.069.295.213.518.435.669.222.15.51.225.865.225.367 0 .661-.075.882-.225.225-.15.337-.337.337-.559a.582.582 0 0 0-.218-.464c-.142-.122-.363-.216-.664-.281l-1.117-.235c-.628-.13-1.092-.35-1.393-.66-.301-.313-.451-.708-.448-1.185a1.68 1.68 0 0 1 .328-1.048 2.14 2.14 0 0 1 .934-.69c.4-.165.862-.248 1.385-.248.767 0 1.37.164 1.811.49.443.327.717.769.822 1.326Z"
          fill="#525252"/>
    <g filter="url(#Frame 1__c)">
        <rect x="221" y="249" width="146" height="83" rx="8" fill="#fff"/>
        <rect x="221.5" y="249.5" width="145" height="82" rx="7.5" stroke="#F5F5F5"/>
    </g>
    <g filter="url(#Frame 1__d)">
        <rect x="1" y="249" width="146" height="83" rx="8" fill="#fff"/>
        <rect x="1.5" y="249.5" width="145" height="82" rx="7.5" stroke="#F5F5F5"/>
    </g>
    <rect x="52" y="262" width="43" height="43" rx="4" fill="#DBEAFE"/>
    <path d="M34.819 313.794v-1.521h7.167v1.521h-2.671V321H37.49v-7.206h-2.672ZM42.453 321v-6.545h1.76v1.142h.068c.12-.407.32-.713.6-.921a1.58 1.58 0 0 1 .972-.315 2.589 2.589 0 0 1 .572.064v1.611a3.146 3.146 0 0 0-.767-.098c-.268 0-.506.058-.716.174a1.292 1.292 0 0 0-.495.477 1.38 1.38 0 0 0-.179.708V321h-1.815Zm6.59.124c-.419 0-.79-.073-1.117-.218a1.792 1.792 0 0 1-.776-.652c-.188-.29-.281-.65-.281-1.082 0-.364.066-.669.2-.916s.315-.446.545-.597c.23-.15.492-.264.785-.341.295-.077.605-.13.929-.162.38-.04.687-.076.92-.111.233-.036.402-.09.507-.161a.358.358 0 0 0 .158-.316v-.025c0-.27-.085-.479-.256-.627-.167-.148-.406-.221-.716-.221-.327 0-.586.072-.78.217a1 1 0 0 0-.383.537l-1.68-.137c.086-.397.254-.741.504-1.031.25-.292.572-.517.967-.673.398-.159.858-.239 1.38-.239.364 0 .712.043 1.045.128.335.085.632.217.89.396.262.179.468.41.618.691.15.278.226.612.226 1.001V321h-1.721v-.908h-.052a1.855 1.855 0 0 1-.421.542 1.959 1.959 0 0 1-.635.362 2.63 2.63 0 0 1-.857.128Zm.519-1.253c.267 0 .503-.053.707-.158.205-.108.365-.253.482-.435a1.12 1.12 0 0 0 .175-.617v-.695a.96.96 0 0 1-.235.102 3.79 3.79 0 0 1-.328.081c-.122.023-.244.044-.366.064l-.333.047a2.24 2.24 0 0 0-.558.149.895.895 0 0 0-.37.277.676.676 0 0 0-.133.426c0 .247.09.436.269.567.181.128.412.192.69.192Zm6.39-2.655V321h-1.816v-6.545h1.73v1.154h.077c.145-.38.388-.681.73-.903.34-.224.753-.337 1.24-.337.454 0 .85.1 1.188.299.338.198.6.483.788.852.188.366.282.804.282 1.312V321h-1.816v-3.844c.003-.4-.1-.713-.306-.937-.208-.228-.493-.341-.857-.341-.244 0-.46.052-.648.158-.184.105-.33.258-.434.46a1.594 1.594 0 0 0-.158.72Zm11.095-.895-1.662.102a.854.854 0 0 0-.183-.383.965.965 0 0 0-.37-.277 1.26 1.26 0 0 0-.542-.107c-.28 0-.518.06-.711.179-.194.117-.29.273-.29.469 0 .156.062.288.187.396.125.108.34.195.644.26l1.184.239c.637.131 1.111.341 1.424.631.312.289.469.67.469 1.142 0 .429-.127.805-.38 1.129-.25.324-.593.577-1.031.758-.435.179-.936.269-1.504.269-.867 0-1.557-.181-2.071-.541a2.11 2.11 0 0 1-.9-1.483l1.786-.094a.917.917 0 0 0 .392.605c.208.136.473.205.797.205.318 0 .574-.061.767-.184.196-.125.296-.285.298-.481a.501.501 0 0 0-.208-.405c-.137-.108-.347-.19-.631-.247l-1.134-.226c-.639-.128-1.115-.349-1.427-.665-.31-.315-.465-.717-.465-1.206 0-.42.114-.782.341-1.086.23-.304.553-.539.968-.704.417-.164.906-.247 1.465-.247.827 0 1.478.175 1.952.524.477.35.756.826.835 1.428Zm3.16 4.803c-.418 0-.79-.073-1.117-.218a1.792 1.792 0 0 1-.776-.652c-.187-.29-.281-.65-.281-1.082 0-.364.067-.669.2-.916.134-.247.316-.446.546-.597.23-.15.491-.264.784-.341a6.03 6.03 0 0 1 .929-.162c.38-.04.687-.076.92-.111.233-.036.402-.09.507-.161a.358.358 0 0 0 .158-.316v-.025c0-.27-.085-.479-.256-.627-.167-.148-.406-.221-.716-.221-.326 0-.586.072-.78.217a1 1 0 0 0-.383.537l-1.679-.137c.085-.397.253-.741.503-1.031.25-.292.572-.517.967-.673.398-.159.858-.239 1.38-.239.365 0 .713.043 1.045.128.335.085.632.217.89.396.262.179.468.41.618.691.15.278.226.612.226 1.001V321h-1.721v-.908h-.052a1.853 1.853 0 0 1-.421.542 1.958 1.958 0 0 1-.635.362 2.631 2.631 0 0 1-.857.128Zm.519-1.253c.267 0 .503-.053.707-.158.205-.108.365-.253.482-.435a1.12 1.12 0 0 0 .175-.617v-.695a.963.963 0 0 1-.235.102 3.8 3.8 0 0 1-.328.081c-.122.023-.244.044-.366.064l-.333.047a2.24 2.24 0 0 0-.558.149.896.896 0 0 0-.37.277.676.676 0 0 0-.133.426c0 .247.09.436.269.567.181.128.412.192.69.192Zm7.532 1.257c-.67 0-1.247-.142-1.73-.426a2.884 2.884 0 0 1-1.108-1.193c-.256-.509-.384-1.094-.384-1.756 0-.671.13-1.259.388-1.764a2.877 2.877 0 0 1 1.112-1.189c.48-.287 1.052-.431 1.713-.431.572 0 1.072.104 1.5.311.43.208.769.499 1.019.874.25.375.388.815.413 1.321h-1.713a1.322 1.322 0 0 0-.383-.788c-.205-.202-.473-.303-.806-.303a1.22 1.22 0 0 0-.737.23c-.207.151-.37.371-.486.661-.116.289-.174.64-.174 1.052 0 .418.056.773.17 1.066.116.292.28.515.49.669.21.153.456.23.737.23a1.2 1.2 0 0 0 .559-.128 1.08 1.08 0 0 0 .413-.371 1.42 1.42 0 0 0 .217-.592h1.713c-.028.5-.165.94-.409 1.321a2.469 2.469 0 0 1-1.001.886c-.426.213-.93.32-1.513.32Zm7.567-6.673v1.363h-3.942v-1.363h3.942Zm-3.047-1.569h1.816v6.103c0 .167.025.298.076.392a.417.417 0 0 0 .213.191.878.878 0 0 0 .324.056c.085 0 .17-.007.256-.021.085-.018.15-.03.196-.039l.285 1.351c-.09.028-.218.061-.383.098-.165.04-.365.064-.601.072-.438.018-.821-.041-1.15-.174a1.61 1.61 0 0 1-.763-.622c-.182-.282-.272-.637-.269-1.066v-6.341Zm4.23 8.114v-6.545h1.815V321h-1.815Zm.912-7.389a.987.987 0 0 1-.695-.269.869.869 0 0 1-.285-.652c0-.25.095-.464.285-.643a.977.977 0 0 1 .695-.273c.27 0 .5.091.69.273.193.179.29.393.29.643a.863.863 0 0 1-.29.652.972.972 0 0 1-.69.269Zm5.315 7.517c-.662 0-1.235-.141-1.718-.422a2.886 2.886 0 0 1-1.112-1.185c-.261-.508-.392-1.098-.392-1.768 0-.676.13-1.267.392-1.773a2.861 2.861 0 0 1 1.112-1.185c.483-.284 1.056-.426 1.718-.426.662 0 1.233.142 1.713.426a2.85 2.85 0 0 1 1.116 1.185c.262.506.392 1.097.392 1.773 0 .67-.13 1.26-.392 1.768a2.877 2.877 0 0 1-1.116 1.185c-.48.281-1.051.422-1.713.422Zm.008-1.406c.301 0 .553-.086.754-.256a1.58 1.58 0 0 0 .456-.707 3.06 3.06 0 0 0 .158-1.019c0-.381-.053-.72-.158-1.018a1.583 1.583 0 0 0-.456-.708 1.118 1.118 0 0 0-.754-.26c-.304 0-.56.087-.767.26a1.6 1.6 0 0 0-.465.708 3.129 3.129 0 0 0-.153 1.018c0 .381.051.72.153 1.019.106.298.26.534.465.707.207.17.463.256.767.256Zm6.209-2.506V321h-1.816v-6.545h1.73v1.154h.077a1.83 1.83 0 0 1 .729-.903c.341-.224.754-.337 1.24-.337.455 0 .851.1 1.189.299.338.198.601.483.788.852.188.366.282.804.282 1.312V321h-1.816v-3.844c.003-.4-.099-.713-.307-.937-.207-.228-.492-.341-.856-.341-.244 0-.46.052-.648.158-.184.105-.33.258-.434.46a1.594 1.594 0 0 0-.158.72Zm7.516 3.908c-.418 0-.79-.073-1.117-.218a1.793 1.793 0 0 1-.775-.652c-.188-.29-.281-.65-.281-1.082 0-.364.066-.669.2-.916.133-.247.315-.446.545-.597.23-.15.492-.264.784-.341.296-.077.606-.13.929-.162.381-.04.688-.076.921-.111.233-.036.402-.09.507-.161a.359.359 0 0 0 .158-.316v-.025c0-.27-.086-.479-.256-.627-.168-.148-.406-.221-.716-.221-.327 0-.587.072-.78.217a.997.997 0 0 0-.383.537l-1.679-.137c.085-.397.253-.741.503-1.031.25-.292.572-.517.967-.673.398-.159.858-.239 1.381-.239.363 0 .711.043 1.044.128.335.085.632.217.89.396.262.179.468.41.618.691.151.278.226.612.226 1.001V321h-1.722v-.908h-.051a1.855 1.855 0 0 1-.422.542 1.949 1.949 0 0 1-.635.362 2.626 2.626 0 0 1-.856.128Zm.52-1.253c.267 0 .503-.053.707-.158.205-.108.365-.253.482-.435a1.12 1.12 0 0 0 .174-.617v-.695a.95.95 0 0 1-.234.102 3.844 3.844 0 0 1-.328.081c-.122.023-.244.044-.367.064l-.332.047a2.24 2.24 0 0 0-.558.149.896.896 0 0 0-.371.277.676.676 0 0 0-.132.426c0 .247.089.436.268.567.182.128.412.192.691.192Zm6.39-7.598V321h-1.816v-8.727h1.816Z"
          fill="#525252"/>
    <rect x="272" y="262" width="43" height="43" rx="4" fill="#DBEAFE"/>
    <path d="M267.359 312.273V321h-1.406l-4.113-5.945h-.072V321h-1.581v-8.727h1.415l4.108 5.949h.076v-5.949h1.573Zm4.552 8.855c-.656 0-1.223-.137-1.7-.409a2.765 2.765 0 0 1-1.095-1.168c-.256-.506-.384-1.101-.384-1.785 0-.674.128-1.265.384-1.773a2.898 2.898 0 0 1 1.082-1.193c.463-.287 1.007-.431 1.632-.431.403 0 .784.066 1.142.196.361.128.679.327.955.597.278.27.497.614.656 1.031.159.415.239.909.239 1.483v.473h-5.366v-1.04h3.887a1.66 1.66 0 0 0-.192-.788 1.4 1.4 0 0 0-.524-.55 1.48 1.48 0 0 0-.776-.2c-.315 0-.592.077-.831.23a1.6 1.6 0 0 0-.558.597 1.714 1.714 0 0 0-.2.805v.908c0 .38.069.707.209.98.139.27.334.477.584.622.25.142.542.213.877.213.225 0 .428-.031.61-.094.182-.065.339-.16.473-.285.133-.125.234-.28.302-.465l1.441.162a2.25 2.25 0 0 1-.52.997c-.253.282-.577.5-.972.657a3.73 3.73 0 0 1-1.355.23Zm5.531-.128-1.849-6.545h1.572l1.151 4.602h.06l1.176-4.602h1.555l1.176 4.576h.064l1.134-4.576h1.576L283.204 321h-1.607l-1.227-4.423h-.09L279.053 321h-1.611Zm13.866-4.815-1.407.153a1.112 1.112 0 0 0-.6-.703 1.428 1.428 0 0 0-.606-.115c-.321 0-.59.069-.809.209-.216.139-.323.319-.32.541a.565.565 0 0 0 .209.464c.145.12.384.218.716.294l1.116.239c.62.134 1.08.345 1.381.635.304.29.457.669.46 1.138a1.78 1.78 0 0 1-.362 1.091c-.236.312-.564.556-.984.733-.421.176-.904.264-1.449.264-.801 0-1.446-.168-1.935-.503a2.02 2.02 0 0 1-.873-1.411l1.504-.144c.068.295.213.518.435.669.221.15.51.225.865.225.366 0 .66-.075.882-.225.224-.151.336-.337.336-.559a.58.58 0 0 0-.217-.464c-.142-.122-.364-.216-.665-.281l-1.116-.235c-.628-.13-1.093-.351-1.394-.66-.301-.313-.45-.708-.447-1.185a1.673 1.673 0 0 1 .328-1.048c.224-.298.536-.529.933-.691.401-.164.862-.247 1.385-.247.767 0 1.371.164 1.811.49.443.327.718.769.823 1.326Zm2.955-3.912V321h-1.543v-8.727h1.543Zm4.484 8.855c-.656 0-1.223-.137-1.7-.409a2.765 2.765 0 0 1-1.095-1.168c-.256-.506-.384-1.101-.384-1.785 0-.674.128-1.265.384-1.773a2.898 2.898 0 0 1 1.082-1.193c.463-.287 1.007-.431 1.632-.431.403 0 .784.066 1.142.196.361.128.679.327.955.597.278.27.497.614.656 1.031.159.415.238.909.238 1.483v.473h-5.365v-1.04h3.887a1.66 1.66 0 0 0-.192-.788 1.4 1.4 0 0 0-.524-.55 1.48 1.48 0 0 0-.776-.2c-.315 0-.592.077-.831.23a1.6 1.6 0 0 0-.558.597 1.714 1.714 0 0 0-.2.805v.908c0 .38.069.707.209.98.139.27.333.477.583.622.25.142.543.213.878.213.225 0 .428-.031.61-.094.181-.065.339-.16.473-.285.133-.125.234-.28.302-.465l1.441.162a2.25 2.25 0 0 1-.52.997c-.253.282-.577.5-.972.657a3.73 3.73 0 0 1-1.355.23Zm7.484-6.673v1.193h-3.763v-1.193h3.763Zm-2.834-1.569h1.543v6.145c0 .208.031.367.094.478.065.107.15.181.255.221.105.04.222.06.35.06.096 0 .184-.007.264-.022.082-.014.145-.027.187-.038l.26 1.206c-.082.028-.2.06-.353.094a2.865 2.865 0 0 1-.554.059 2.499 2.499 0 0 1-1.044-.174 1.632 1.632 0 0 1-.738-.605c-.179-.273-.267-.614-.264-1.023v-6.401Zm7.393 1.569v1.193h-3.763v-1.193h3.763Zm-2.834-1.569h1.542v6.145c0 .208.032.367.094.478a.51.51 0 0 0 .256.221c.105.04.221.06.349.06.097 0 .185-.007.264-.022.083-.014.145-.027.188-.038l.26 1.206c-.082.028-.2.06-.354.094-.15.034-.335.054-.554.059a2.505 2.505 0 0 1-1.044-.174 1.634 1.634 0 0 1-.737-.605c-.179-.273-.267-.614-.264-1.023v-6.401Zm6.951 8.242c-.656 0-1.223-.137-1.7-.409a2.765 2.765 0 0 1-1.095-1.168c-.256-.506-.384-1.101-.384-1.785 0-.674.128-1.265.384-1.773a2.898 2.898 0 0 1 1.082-1.193c.463-.287 1.007-.431 1.632-.431.404 0 .784.066 1.142.196.361.128.679.327.955.597.278.27.497.614.656 1.031.159.415.239.909.239 1.483v.473h-5.365v-1.04h3.886a1.66 1.66 0 0 0-.192-.788 1.4 1.4 0 0 0-.524-.55 1.48 1.48 0 0 0-.776-.2c-.315 0-.592.077-.83.23-.239.151-.425.35-.559.597-.13.244-.197.513-.2.805v.908c0 .38.07.707.209.98.139.27.334.477.584.622.25.142.542.213.877.213.225 0 .428-.031.61-.094.182-.065.339-.16.473-.285.133-.125.234-.28.302-.465l1.441.162a2.24 2.24 0 0 1-.52.997c-.253.282-.577.5-.972.657a3.73 3.73 0 0 1-1.355.23Zm4.216-.128v-6.545h1.495v1.09h.069c.119-.377.323-.669.613-.873a1.687 1.687 0 0 1 1.002-.311c.085 0 .18.004.285.013.108.005.198.015.269.029v1.419a1.701 1.701 0 0 0-.311-.059c-.14-.02-.275-.03-.405-.03-.282 0-.534.061-.759.183a1.352 1.352 0 0 0-.716 1.236V321h-1.542Zm9.931-4.815-1.406.153a1.13 1.13 0 0 0-.209-.4 1.04 1.04 0 0 0-.392-.303 1.426 1.426 0 0 0-.605-.115c-.321 0-.591.069-.81.209-.216.139-.323.319-.32.541a.565.565 0 0 0 .209.464c.145.12.384.218.716.294l1.117.239c.619.134 1.079.345 1.38.635.304.29.458.669.46 1.138a1.774 1.774 0 0 1-.362 1.091c-.236.312-.564.556-.984.733-.421.176-.904.264-1.449.264-.801 0-1.446-.168-1.935-.503a2.02 2.02 0 0 1-.873-1.411l1.504-.144c.068.295.213.518.435.669.221.15.51.225.865.225.366 0 .66-.075.882-.225.224-.151.336-.337.336-.559a.58.58 0 0 0-.217-.464c-.142-.122-.364-.216-.665-.281l-1.116-.235c-.628-.13-1.092-.351-1.394-.66-.301-.313-.45-.708-.447-1.185a1.679 1.679 0 0 1 .328-1.048 2.16 2.16 0 0 1 .933-.691c.401-.164.863-.247 1.385-.247.767 0 1.371.164 1.811.49.444.327.718.769.823 1.326Z"
          fill="#525252"/>
    <path d="M79.25 276.75h-10.5a2 2 0 0 0-2 2v10.5a2 2 0 0 0 2 2h10.5a2 2 0 0 0 2-2v-10.5a2 2 0 0 0-2-2Z"
          stroke="#171717" stroke-width="1.5" stroke-linecap="round" stroke-linejoin="round"/>
    <path d="m70.75 282.75 2.5 2.25-2.5 2.25" stroke="#171717" stroke-width="1.5" stroke-linecap="round"
          stroke-linejoin="round"/>
    <path d="M295 277h8m-8 4h5m-5 6h8m-8 4h5m-10-15h-4a1 1 0 0 0-1 1v4a1 1 0 0 0 1 1h4a1 1 0 0 0 1-1v-4a1 1 0 0 0-1-1Zm0 10h-4a1 1 0 0 0-1 1v4a1 1 0 0 0 1 1h4a1 1 0 0 0 1-1v-4a1 1 0 0 0-1-1Z"
          stroke="#000" stroke-width="1.5" stroke-linecap="round" stroke-linejoin="round"/>
    <defs>
        <filter id="Frame 1__a" x="146" y="129" width="89" height="89" filterUnits="userSpaceOnUse"
                color-interpolation-filters="sRGB">
            <feFlood flood-opacity="0" result="BackgroundImageFix"/>
            <feColorMatrix in="SourceAlpha" values="0 0 0 0 0 0 0 0 0 0 0 0 0 0 0 0 0 0 127 0" result="hardAlpha"/>
            <feOffset/>
            <feColorMatrix values="0 0 0 0 0 0 0 0 0 0 0 0 0 0 0 0 0 0 0.1 0"/>
            <feBlend in2="BackgroundImageFix" result="effect1_dropShadow_721_35"/>
            <feColorMatrix in="SourceAlpha" values="0 0 0 0 0 0 0 0 0 0 0 0 0 0 0 0 0 0 127 0" result="hardAlpha"/>
            <feOffset dx="1" dy="1"/>
            <feGaussianBlur stdDeviation="1"/>
            <feColorMatrix values="0 0 0 0 0 0 0 0 0 0 0 0 0 0 0 0 0 0 0.1 0"/>
            <feBlend in2="effect1_dropShadow_721_35" result="effect2_dropShadow_721_35"/>
            <feColorMatrix in="SourceAlpha" values="0 0 0 0 0 0 0 0 0 0 0 0 0 0 0 0 0 0 127 0" result="hardAlpha"/>
            <feOffset dx="2" dy="2"/>
            <feGaussianBlur stdDeviation="1.5"/>
            <feColorMatrix values="0 0 0 0 0 0 0 0 0 0 0 0 0 0 0 0 0 0 0.09 0"/>
            <feBlend in2="effect2_dropShadow_721_35" result="effect3_dropShadow_721_35"/>
            <feColorMatrix in="SourceAlpha" values="0 0 0 0 0 0 0 0 0 0 0 0 0 0 0 0 0 0 127 0" result="hardAlpha"/>
            <feOffset dx="5" dy="6"/>
            <feGaussianBlur stdDeviation="2.5"/>
            <feColorMatrix values="0 0 0 0 0 0 0 0 0 0 0 0 0 0 0 0 0 0 0.05 0"/>
            <feBlend in2="effect3_dropShadow_721_35" result="effect4_dropShadow_721_35"/>
            <feColorMatrix in="SourceAlpha" values="0 0 0 0 0 0 0 0 0 0 0 0 0 0 0 0 0 0 127 0" result="hardAlpha"/>
            <feOffset dx="10" dy="10"/>
            <feGaussianBlur stdDeviation="3"/>
            <feColorMatrix values="0 0 0 0 0 0 0 0 0 0 0 0 0 0 0 0 0 0 0.01 0"/>
            <feBlend in2="effect4_dropShadow_721_35" result="effect5_dropShadow_721_35"/>
            <feBlend in="SourceGraphic" in2="effect5_dropShadow_721_35" result="shape"/>
        </filter>
        <filter id="Frame 1__b" x="109" y="0" width="163" height="100" filterUnits="userSpaceOnUse"
                color-interpolation-filters="sRGB">
            <feFlood flood-opacity="0" result="BackgroundImageFix"/>
            <feColorMatrix in="SourceAlpha" values="0 0 0 0 0 0 0 0 0 0 0 0 0 0 0 0 0 0 127 0" result="hardAlpha"/>
            <feOffset/>
            <feColorMatrix values="0 0 0 0 0 0 0 0 0 0 0 0 0 0 0 0 0 0 0.1 0"/>
            <feBlend in2="BackgroundImageFix" result="effect1_dropShadow_721_35"/>
            <feColorMatrix in="SourceAlpha" values="0 0 0 0 0 0 0 0 0 0 0 0 0 0 0 0 0 0 127 0" result="hardAlpha"/>
            <feOffset dx="1" dy="1"/>
            <feGaussianBlur stdDeviation="1"/>
            <feColorMatrix values="0 0 0 0 0 0 0 0 0 0 0 0 0 0 0 0 0 0 0.1 0"/>
            <feBlend in2="effect1_dropShadow_721_35" result="effect2_dropShadow_721_35"/>
            <feColorMatrix in="SourceAlpha" values="0 0 0 0 0 0 0 0 0 0 0 0 0 0 0 0 0 0 127 0" result="hardAlpha"/>
            <feOffset dx="2" dy="2"/>
            <feGaussianBlur stdDeviation="1.5"/>
            <feColorMatrix values="0 0 0 0 0 0 0 0 0 0 0 0 0 0 0 0 0 0 0.09 0"/>
            <feBlend in2="effect2_dropShadow_721_35" result="effect3_dropShadow_721_35"/>
            <feColorMatrix in="SourceAlpha" values="0 0 0 0 0 0 0 0 0 0 0 0 0 0 0 0 0 0 127 0" result="hardAlpha"/>
            <feOffset dx="5" dy="6"/>
            <feGaussianBlur stdDeviation="2.5"/>
            <feColorMatrix values="0 0 0 0 0 0 0 0 0 0 0 0 0 0 0 0 0 0 0.05 0"/>
            <feBlend in2="effect3_dropShadow_721_35" result="effect4_dropShadow_721_35"/>
            <feColorMatrix in="SourceAlpha" values="0 0 0 0 0 0 0 0 0 0 0 0 0 0 0 0 0 0 127 0" result="hardAlpha"/>
            <feOffset dx="10" dy="10"/>
            <feGaussianBlur stdDeviation="3"/>
            <feColorMatrix values="0 0 0 0 0 0 0 0 0 0 0 0 0 0 0 0 0 0 0.01 0"/>
            <feBlend in2="effect4_dropShadow_721_35" result="effect5_dropShadow_721_35"/>
            <feBlend in="SourceGraphic" in2="effect5_dropShadow_721_35" result="shape"/>
        </filter>
        <filter id="Frame 1__c" x="220" y="248" width="163" height="100" filterUnits="userSpaceOnUse"
                color-interpolation-filters="sRGB">
            <feFlood flood-opacity="0" result="BackgroundImageFix"/>
            <feColorMatrix in="SourceAlpha" values="0 0 0 0 0 0 0 0 0 0 0 0 0 0 0 0 0 0 127 0" result="hardAlpha"/>
            <feOffset/>
            <feColorMatrix values="0 0 0 0 0 0 0 0 0 0 0 0 0 0 0 0 0 0 0.1 0"/>
            <feBlend in2="BackgroundImageFix" result="effect1_dropShadow_721_35"/>
            <feColorMatrix in="SourceAlpha" values="0 0 0 0 0 0 0 0 0 0 0 0 0 0 0 0 0 0 127 0" result="hardAlpha"/>
            <feOffset dx="1" dy="1"/>
            <feGaussianBlur stdDeviation="1"/>
            <feColorMatrix values="0 0 0 0 0 0 0 0 0 0 0 0 0 0 0 0 0 0 0.1 0"/>
            <feBlend in2="effect1_dropShadow_721_35" result="effect2_dropShadow_721_35"/>
            <feColorMatrix in="SourceAlpha" values="0 0 0 0 0 0 0 0 0 0 0 0 0 0 0 0 0 0 127 0" result="hardAlpha"/>
            <feOffset dx="2" dy="2"/>
            <feGaussianBlur stdDeviation="1.5"/>
            <feColorMatrix values="0 0 0 0 0 0 0 0 0 0 0 0 0 0 0 0 0 0 0.09 0"/>
            <feBlend in2="effect2_dropShadow_721_35" result="effect3_dropShadow_721_35"/>
            <feColorMatrix in="SourceAlpha" values="0 0 0 0 0 0 0 0 0 0 0 0 0 0 0 0 0 0 127 0" result="hardAlpha"/>
            <feOffset dx="5" dy="6"/>
            <feGaussianBlur stdDeviation="2.5"/>
            <feColorMatrix values="0 0 0 0 0 0 0 0 0 0 0 0 0 0 0 0 0 0 0.05 0"/>
            <feBlend in2="effect3_dropShadow_721_35" result="effect4_dropShadow_721_35"/>
            <feColorMatrix in="SourceAlpha" values="0 0 0 0 0 0 0 0 0 0 0 0 0 0 0 0 0 0 127 0" result="hardAlpha"/>
            <feOffset dx="10" dy="10"/>
            <feGaussianBlur stdDeviation="3"/>
            <feColorMatrix values="0 0 0 0 0 0 0 0 0 0 0 0 0 0 0 0 0 0 0.01 0"/>
            <feBlend in2="effect4_dropShadow_721_35" result="effect5_dropShadow_721_35"/>
            <feBlend in="SourceGraphic" in2="effect5_dropShadow_721_35" result="shape"/>
        </filter>
        <filter id="Frame 1__d" x="0" y="248" width="163" height="100" filterUnits="userSpaceOnUse"
                color-interpolation-filters="sRGB">
            <feFlood flood-opacity="0" result="BackgroundImageFix"/>
            <feColorMatrix in="SourceAlpha" values="0 0 0 0 0 0 0 0 0 0 0 0 0 0 0 0 0 0 127 0" result="hardAlpha"/>
            <feOffset/>
            <feColorMatrix values="0 0 0 0 0 0 0 0 0 0 0 0 0 0 0 0 0 0 0.1 0"/>
            <feBlend in2="BackgroundImageFix" result="effect1_dropShadow_721_35"/>
            <feColorMatrix in="SourceAlpha" values="0 0 0 0 0 0 0 0 0 0 0 0 0 0 0 0 0 0 127 0" result="hardAlpha"/>
            <feOffset dx="1" dy="1"/>
            <feGaussianBlur stdDeviation="1"/>
            <feColorMatrix values="0 0 0 0 0 0 0 0 0 0 0 0 0 0 0 0 0 0 0.1 0"/>
            <feBlend in2="effect1_dropShadow_721_35" result="effect2_dropShadow_721_35"/>
            <feColorMatrix in="SourceAlpha" values="0 0 0 0 0 0 0 0 0 0 0 0 0 0 0 0 0 0 127 0" result="hardAlpha"/>
            <feOffset dx="2" dy="2"/>
            <feGaussianBlur stdDeviation="1.5"/>
            <feColorMatrix values="0 0 0 0 0 0 0 0 0 0 0 0 0 0 0 0 0 0 0.09 0"/>
            <feBlend in2="effect2_dropShadow_721_35" result="effect3_dropShadow_721_35"/>
            <feColorMatrix in="SourceAlpha" values="0 0 0 0 0 0 0 0 0 0 0 0 0 0 0 0 0 0 127 0" result="hardAlpha"/>
            <feOffset dx="5" dy="6"/>
            <feGaussianBlur stdDeviation="2.5"/>
            <feColorMatrix values="0 0 0 0 0 0 0 0 0 0 0 0 0 0 0 0 0 0 0.05 0"/>
            <feBlend in2="effect3_dropShadow_721_35" result="effect4_dropShadow_721_35"/>
            <feColorMatrix in="SourceAlpha" values="0 0 0 0 0 0 0 0 0 0 0 0 0 0 0 0 0 0 127 0" result="hardAlpha"/>
            <feOffset dx="10" dy="10"/>
            <feGaussianBlur stdDeviation="3"/>
            <feColorMatrix values="0 0 0 0 0 0 0 0 0 0 0 0 0 0 0 0 0 0 0.01 0"/>
            <feBlend in2="effect4_dropShadow_721_35" result="effect5_dropShadow_721_35"/>
            <feBlend in="SourceGraphic" in2="effect5_dropShadow_721_35" result="shape"/>
        </filter>
    </defs>
</svg>